<?xml version="1.0" encoding="UTF-8"?>
<svg version="1.1" xmlns="http://www.w3.org/2000/svg" width="703" height="181">
<path d="M0 0 C231.99 0 463.98 0 703 0 C703 59.73 703 119.46 703 181 C471.01 181 239.02 181 0 181 C0 121.27 0 61.54 0 0 Z " fill="#FEFEFE" transform="translate(0,0)"/>
<path d="M0 0 C1.14597656 -0.01224609 2.29195313 -0.02449219 3.47265625 -0.03710938 C4.57996094 -0.03904297 5.68726562 -0.04097656 6.828125 -0.04296875 C8.35034668 -0.04913208 8.35034668 -0.04913208 9.90332031 -0.05541992 C12.89245144 0.19965602 15.01833133 0.99179971 17.75 2.1875 C19.67903132 2.4634478 21.6189032 2.67199903 23.5625 2.8125 C24.53832031 2.88726563 25.51414062 2.96203125 26.51953125 3.0390625 C27.25558594 3.08804687 27.99164063 3.13703125 28.75 3.1875 C28.75 3.8475 28.75 4.5075 28.75 5.1875 C29.4925 5.47625 30.235 5.765 31 6.0625 C32.36125 6.619375 32.36125 6.619375 33.75 7.1875 C34.4925 7.47625 35.235 7.765 36 8.0625 C37.75 9.1875 37.75 9.1875 38.3125 11.125 C38.5290625 12.1459375 38.5290625 12.1459375 38.75 13.1875 C40.3701002 15.29363025 41.46556431 16.0926881 44 16.9375 C48.08584099 18.79470045 51.04184796 21.62253149 53.75 25.1875 C54.1875 28.125 54.1875 28.125 53.75 30.1875 C55.07 30.8475 56.39 31.5075 57.75 32.1875 C57.75 33.1775 57.75 34.1675 57.75 35.1875 C58.41 35.1875 59.07 35.1875 59.75 35.1875 C59.75 37.1675 59.75 39.1475 59.75 41.1875 C60.74 41.5175 61.73 41.8475 62.75 42.1875 C70.17240153 52.16135206 70.19726383 65.70795778 70.078125 77.64453125 C70.07625183 78.95411301 70.07437866 80.26369476 70.07244873 81.61296082 C70.06790212 84.34993354 70.05368129 87.08660267 70.03125 89.82348633 C70.00260465 93.33625116 69.99199607 96.84878269 69.9875679 100.36165333 C69.98243534 103.72681539 69.96791249 107.09189684 69.953125 110.45703125 C69.94887512 111.72037796 69.94462524 112.98372467 69.94024658 114.28535461 C69.93063904 115.44133652 69.92103149 116.59731842 69.91113281 117.78833008 C69.90089081 119.32049919 69.90089081 119.32049919 69.89044189 120.88362122 C69.75 123.1875 69.75 123.1875 68.75 124.1875 C68.38239269 126.51567964 68.04758419 128.8493385 67.75 131.1875 C66.76 131.5175 65.77 131.8475 64.75 132.1875 C64.42 133.1775 64.09 134.1675 63.75 135.1875 C63.09 135.1875 62.43 135.1875 61.75 135.1875 C61.75 135.8475 61.75 136.5075 61.75 137.1875 C61.110625 137.31125 60.47125 137.435 59.8125 137.5625 C59.131875 137.76875 58.45125 137.975 57.75 138.1875 C57.42 138.8475 57.09 139.5075 56.75 140.1875 C39.59 140.1875 22.43 140.1875 4.75 140.1875 C4.688125 133.979375 4.62625 127.77125 4.5625 121.375 C4.52153198 118.47110474 4.52153198 118.47110474 4.47973633 115.50854492 C4.38207524 103.72410675 4.38135608 92.37259699 12.75 83.1875 C14.07 83.1875 15.39 83.1875 16.75 83.1875 C16.75 82.5275 16.75 81.8675 16.75 81.1875 C20.62442203 79.19793193 24.54684909 77.3285271 28.5 75.5 C29.44359375 75.06300781 30.3871875 74.62601562 31.359375 74.17578125 C33.75 73.1875 33.75 73.1875 35.75 73.1875 C35.58115399 70.24045854 35.58115399 70.24045854 33.75 67.1875 C30.20918351 65.41977013 26.55074634 64.26797973 22.75 63.1875 C22.75 62.5275 22.75 61.8675 22.75 61.1875 C21.76 61.208125 20.77 61.22875 19.75 61.25 C14.91251174 60.54351084 12.5376471 57.43721793 9.55078125 53.80078125 C5.76637535 48.30887768 3.46422627 42.90318267 3.75 36.1875 C2.1 36.5175 0.45 36.8475 -1.25 37.1875 C-1.518125 38.033125 -1.78625 38.87875 -2.0625 39.75 C-3.95788979 45.23665465 -6.18631813 50.2589683 -9.25 55.1875 C-9.93096422 56.51358822 -10.60330586 57.84436601 -11.25 59.1875 C-11.91 59.1875 -12.57 59.1875 -13.25 59.1875 C-13.58 60.1775 -13.91 61.1675 -14.25 62.1875 C-21.45191503 67.42525638 -28.58794626 68.6327788 -37.21875 68.48046875 C-38.13966431 68.47622391 -39.06057861 68.47197906 -40.00939941 68.46760559 C-42.92324245 68.45094065 -45.83636939 68.41331188 -48.75 68.375 C-50.73696911 68.35993739 -52.72394917 68.34625175 -54.7109375 68.33398438 C-59.55756357 68.30107716 -64.40366078 68.24938031 -69.25 68.1875 C-69.25 62.5775 -69.25 56.9675 -69.25 51.1875 C-68.26 51.1875 -67.27 51.1875 -66.25 51.1875 C-66.4046875 49.7025 -66.4046875 49.7025 -66.5625 48.1875 C-66.57088167 44.02180901 -64.93725412 41.61449247 -62.62890625 38.25390625 C-60.49565285 35.05704775 -58.91751387 31.64604728 -57.25 28.1875 C-56.59 28.1875 -55.93 28.1875 -55.25 28.1875 C-54.92 26.5375 -54.59 24.8875 -54.25 23.1875 C-53.59 23.1875 -52.93 23.1875 -52.25 23.1875 C-51.59 21.5375 -50.93 19.8875 -50.25 18.1875 C-49.59 18.1875 -48.93 18.1875 -48.25 18.1875 C-47.92 17.1975 -47.59 16.2075 -47.25 15.1875 C-45.1875 14.5 -45.1875 14.5 -43.25 14.1875 C-43.25 13.5275 -43.25 12.8675 -43.25 12.1875 C-42.26 11.8575 -41.27 11.5275 -40.25 11.1875 C-39.755 10.671875 -39.26 10.15625 -38.75 9.625 C-37.25 8.1875 -37.25 8.1875 -34.25 8.1875 C-34.25 7.5275 -34.25 6.8675 -34.25 6.1875 C-33.64671875 6.13851563 -33.0434375 6.08953125 -32.421875 6.0390625 C-31.62265625 5.96429687 -30.8234375 5.88953125 -30 5.8125 C-29.21109375 5.74289063 -28.4221875 5.67328125 -27.609375 5.6015625 C-25.13868696 5.16796493 -23.45968148 4.3428603 -21.25 3.1875 C-19.86466697 2.79426075 -18.46796106 2.43878962 -17.0625 2.125 C-11.04406207 0.64505625 -6.57864843 0.00365075 0 0 Z " fill="#5F6FFF" transform="translate(101.25,22.8125)"/>
<path d="M0 0 C13.86 0 27.72 0 42 0 C42 0.66 42 1.32 42 2 C44.64 2.33 47.28 2.66 50 3 C50.495 4.485 50.495 4.485 51 6 C52.32561085 6.36282883 53.66070657 6.69148419 55 7 C57 8.34765625 57 8.34765625 59 10.0625 C59.66 10.61035156 60.32 11.15820312 61 11.72265625 C66.58077678 18.07732982 67.57654048 24.14691837 67.390625 32.40625 C67.38659668 33.2631543 67.38256836 34.12005859 67.37841797 35.00292969 C67.35767076 38.16884121 67.30182668 41.33444473 67.25 44.5 C67.1675 51.595 67.085 58.69 67 66 C48.85 66 30.7 66 12 66 C12 65.34 12 64.68 12 64 C10.35 64 8.7 64 7 64 C6.731875 63.360625 6.46375 62.72125 6.1875 62.0625 C5.11332248 59.66868314 5.11332248 59.66868314 2 59 C2 57.35 2 55.7 2 54 C1.34 54 0.68 54 0 54 C0 36.18 0 18.36 0 0 Z " fill="#6070FF" transform="translate(32,97)"/>
<path d="M0 0 C6.93 0 13.86 0 21 0 C23.55134915 7.29359277 26.09634119 14.58936072 28.63549805 21.88720703 C29.49996886 24.36893365 30.36616595 26.85005966 31.23413086 29.33056641 C32.48226255 32.89849408 33.72414623 36.46854396 34.96484375 40.0390625 C35.35341049 41.14553131 35.74197723 42.25200012 36.14231873 43.39199829 C36.50261673 44.43262421 36.86291473 45.47325012 37.23413086 46.54541016 C37.55167831 47.4558609 37.86922577 48.36631165 38.19639587 49.30435181 C39.05572741 52.18693471 39.56427127 55.02632844 40 58 C40.66 58 41.32 58 42 58 C42.12455566 57.13358887 42.24911133 56.26717773 42.37744141 55.37451172 C42.98283077 52.09306398 43.85894615 49.15369828 44.9609375 46.0078125 C45.35023438 44.89019531 45.73953125 43.77257812 46.140625 42.62109375 C46.54796875 41.46738281 46.9553125 40.31367187 47.375 39.125 C47.77460938 37.97902344 48.17421875 36.83304688 48.5859375 35.65234375 C50.21025593 31.00914402 51.84272895 26.37201339 53.58984375 21.7734375 C55.2520376 17.3920236 56.71986907 12.94962209 58.1875 8.5 C59.5796875 4.2925 59.5796875 4.2925 61 0 C67.93 0 74.86 0 82 0 C82 26.07 82 52.14 82 79 C77.05 79 72.1 79 67 79 C67 61.84 67 44.68 67 27 C66.34 27 65.68 27 65 27 C64.88011719 27.68578125 64.76023437 28.3715625 64.63671875 29.078125 C63.91299236 32.39927431 62.89912505 35.52880728 61.8125 38.75 C61.59400391 39.39904297 61.37550781 40.04808594 61.15039062 40.71679688 C59.23663564 46.37180809 57.24487494 51.99881439 55.24487305 57.6237793 C52.72930007 64.71683017 50.35906925 71.85340785 48 79 C43.38 79 38.76 79 34 79 C30.0204335 68.50030033 26.15715116 57.96505743 22.42041016 47.37646484 C21.60789381 45.07657971 20.79031488 42.77853003 19.97265625 40.48046875 C19.45282006 39.01052447 18.93327696 37.5404765 18.4140625 36.0703125 C18.17039948 35.38711945 17.92673645 34.70392639 17.6756897 34.00003052 C16 29.22890272 16 29.22890272 16 27 C15.34 27 14.68 27 14 27 C14 44.16 14 61.32 14 79 C9.38 79 4.76 79 0 79 C0 52.93 0 26.86 0 0 Z " fill="#6171FF" transform="translate(461,57)"/>
<path d="M0 0 C4.95 0 9.9 0 15 0 C15 27.72 15 55.44 15 84 C10.05 84 5.1 84 0 84 C-0.495 80.535 -0.495 80.535 -1 77 C-1.44730469 77.40992188 -1.89460937 77.81984375 -2.35546875 78.2421875 C-2.96003906 78.78101563 -3.56460938 79.31984375 -4.1875 79.875 C-4.77917969 80.40867187 -5.37085938 80.94234375 -5.98046875 81.4921875 C-11.50047925 85.61351062 -17.35943898 85.82895594 -24 85 C-31.3064831 82.91091848 -35.66384642 78.97685207 -39.66015625 72.6015625 C-44.96306099 62.3049603 -43.85624086 49.8827989 -41.02734375 38.984375 C-38.7740749 32.4387575 -35.35809419 28.45732569 -29.375 25 C-22.99087263 22.16367835 -16.24918651 21.59497204 -9.56640625 23.8046875 C-5.98887151 25.49827275 -3.84702724 27.15297276 -1 30 C-0.67 20.1 -0.34 10.2 0 0 Z " fill="#6171FF" transform="translate(667,52)"/>
<path d="M0 0 C3.72873595 3.20844721 6.33945083 6.99941677 8.6875 11.3125 C8.6875 11.9725 8.6875 12.6325 8.6875 13.3125 C6.640625 14.85546875 6.640625 14.85546875 3.9375 16.5 C3.05578125 17.05042969 2.1740625 17.60085937 1.265625 18.16796875 C-1.3125 19.3125 -1.3125 19.3125 -3.5625 19.1328125 C-5.3125 18.3125 -5.3125 18.3125 -6.5625 16 C-9.09381654 12.11262103 -11.90516828 10.63117365 -16.3125 9.3125 C-22.76375273 8.45521944 -28.89802658 8.57354045 -34.625 11.90234375 C-38.76886147 15.36515391 -41.98690978 20.7988202 -42.48950195 26.22265625 C-43.20986847 40.84357644 -43.20986847 40.84357644 -38.3125 54.3125 C-33.69515837 58.97181746 -28.92367633 60.46553885 -22.5 60.5625 C-16.43026189 60.50392593 -12.88240125 59.368421 -8.125 55.5625 C-5.77512242 52.64541059 -4.65589963 49.80533904 -3.3125 46.3125 C1.18547113 47.99923918 5.41636302 50.12923892 9.6875 52.3125 C7.44100771 61.07381995 2.63558285 67.26871164 -4.87109375 72.12109375 C-14.5043757 76.82213534 -26.47268233 76.7689781 -36.6875 73.875 C-46.89429859 69.89490327 -52.75507558 62.7613093 -57.25390625 53.01171875 C-59.64397022 46.91749659 -59.56614505 41.17723925 -59.625 34.6875 C-59.65400391 33.64464844 -59.68300781 32.60179687 -59.71289062 31.52734375 C-59.79872935 20.94937199 -56.69206507 12.18528746 -49.48046875 4.3125 C-35.5738301 -9.31851158 -16.35283186 -8.33068793 0 0 Z " fill="#6171FF" transform="translate(264.3125,61.6875)"/>
<path d="M0 0 C5.34682441 4.98872301 5.79354103 10.43177029 6.20532227 17.54858398 C6.26030884 19.37885132 6.26030884 19.37885132 6.31640625 21.24609375 C6.33718735 21.90207047 6.35796844 22.55804718 6.37937927 23.23390198 C6.44405938 25.30167546 6.50337466 27.36956101 6.5625 29.4375 C6.60576307 30.85092242 6.64937965 32.26433407 6.69335938 33.67773438 C6.79965516 37.11837471 6.90114472 40.55913692 7 44 C9.97 44.495 9.97 44.495 13 45 C13 48.63 13 52.26 13 56 C7.47964018 57.38008995 2.32415731 58.08790342 -2.9375 55.625 C-5 54 -5 54 -7 52 C-7 51.01 -7 50.02 -7 49 C-7.721875 49.763125 -8.44375 50.52625 -9.1875 51.3125 C-15.13244178 56.99322215 -20.36425076 58.38399225 -28.3984375 58.27734375 C-32.51610583 57.8383731 -35.70178575 56.49079922 -39 54 C-44.05663382 47.64679341 -44.80499758 41.91391984 -44 34 C-41.64475711 29.01775543 -38.6848787 26.76385952 -34 24 C-31.34501911 23.16588896 -28.82759778 22.46699761 -26.125 21.875 C-25.45597656 21.71902344 -24.78695313 21.56304687 -24.09765625 21.40234375 C-22.75393784 21.08906836 -21.40920873 20.78009468 -20.06347656 20.47558594 C-16.6965137 19.69957509 -13.34977732 18.84681172 -10 18 C-9.79029441 13.85906302 -9.79029441 13.85906302 -11 10 C-16.03499461 8.32166846 -20.67028999 8.08718965 -25.671875 10.046875 C-28.15931409 11.29795383 -30.58134359 12.62149117 -33 14 C-34.98 14.99 -34.98 14.99 -37 16 C-38.98 12.7 -40.96 9.4 -43 6 C-30.83853888 -3.60115352 -14.34990304 -9.08559969 0 0 Z " fill="#6272FF" transform="translate(325,79)"/>
<path d="M0 0 C4.43621663 3.95707219 6.7789646 7.44741151 9 13 C9 18.61 9 24.22 9 30 C-4.2 30 -17.4 30 -31 30 C-28.34066833 40.9096453 -28.34066833 40.9096453 -22 44 C-15.87881441 44.90882231 -10.19461029 44.59626866 -5 41 C-4.34 40.01 -3.68 39.02 -3 38 C1.51478398 38.53115106 4.34666857 40.36620292 8 43 C7.34725805 48.2763308 5.29908593 50.16602396 1.2890625 53.41796875 C-6.336005 58.68785329 -14.9728017 58.92218825 -24 58 C-31.05345028 56.23900436 -37.29913466 53.02928008 -41.4375 46.85546875 C-46.80479894 37.66091972 -47.2445629 27.45845398 -46 17 C-43.90522435 9.80355672 -40.42177277 4.17548115 -34.046875 0.11328125 C-33.37140625 -0.25410156 -32.6959375 -0.62148437 -32 -1 C-31.40703125 -1.33644531 -30.8140625 -1.67289062 -30.203125 -2.01953125 C-21.03658407 -6.30900233 -8.47383737 -5.42265172 0 0 Z " fill="#6171FF" transform="translate(605,79)"/>
<path d="M0 0 C4.43621663 3.95707219 6.7789646 7.44741151 9 13 C9 18.61 9 24.22 9 30 C-4.2 30 -17.4 30 -31 30 C-28.34066833 40.9096453 -28.34066833 40.9096453 -22 44 C-15.87881441 44.90882231 -10.19461029 44.59626866 -5 41 C-4.34 40.01 -3.68 39.02 -3 38 C1.51478398 38.53115106 4.34666857 40.36620292 8 43 C7.34725805 48.2763308 5.29908593 50.16602396 1.2890625 53.41796875 C-6.336005 58.68785329 -14.9728017 58.92218825 -24 58 C-31.05345028 56.23900436 -37.29913466 53.02928008 -41.4375 46.85546875 C-46.80479894 37.66091972 -47.2445629 27.45845398 -46 17 C-43.90522435 9.80355672 -40.42177277 4.17548115 -34.046875 0.11328125 C-33.37140625 -0.25410156 -32.6959375 -0.62148437 -32 -1 C-31.40703125 -1.33644531 -30.8140625 -1.67289062 -30.203125 -2.01953125 C-21.03658407 -6.30900233 -8.47383737 -5.42265172 0 0 Z " fill="#6171FF" transform="translate(437,79)"/>
<path d="M0 0 C4.62 0 9.24 0 14 0 C14 2.97 14 5.94 14 9 C14.66 9 15.32 9 16 9 C16.2475 8.4225 16.495 7.845 16.75 7.25 C18.82554091 3.51402637 20.93173944 1.35608685 25 0 C26.68545724 -0.09287771 28.374493 -0.12997204 30.0625 -0.125 C30.94035156 -0.12757812 31.81820313 -0.13015625 32.72265625 -0.1328125 C35 0 35 0 37 1 C36.85704109 2.39613065 36.71048442 3.79189308 36.5625 5.1875 C36.48128906 5.96480469 36.40007812 6.74210937 36.31640625 7.54296875 C35.99227088 10.06001996 35.52467495 12.5177143 35 15 C34.20335937 14.94199219 33.40671875 14.88398437 32.5859375 14.82421875 C25.49802807 14.32893298 25.49802807 14.32893298 19.3125 17.25 C15.44813645 21.84545935 15.81043974 26.44561465 15.68359375 32.265625 C15.66281265 33.05902283 15.64203156 33.85242065 15.62062073 34.66986084 C15.55540027 37.19648844 15.49636856 39.72321721 15.4375 42.25 C15.3942886 43.96615616 15.35067347 45.68230222 15.30664062 47.3984375 C15.19974717 51.59885546 15.09840271 55.79937489 15 60 C10.05 60 5.1 60 0 60 C0 40.2 0 20.4 0 0 Z " fill="#6171FF" transform="translate(349,76)"/>
<path d="M0 0 C3.91614871 1.78006759 5.53710189 3.2902229 7.875 6.875 C10.38055252 13.82153184 10.37891514 22.95634481 7.3125 29.6875 C5.32673427 32.89633252 3.65086478 34.73013399 0 36 C-4.13159104 36.60901175 -8.08643688 36.95091173 -11.91015625 35.05078125 C-15.2275582 32.46695713 -16.80037612 29.94470915 -18 26 C-18.32604112 23.18264246 -18.37007535 20.39663622 -18.375 17.5625 C-18.39949219 16.82451172 -18.42398438 16.08652344 -18.44921875 15.32617188 C-18.47715563 10.08800768 -17.47068153 7.13437326 -14 3 C-9.793738 -0.99510427 -5.52456339 -0.76802777 0 0 Z " fill="#FCFCFF" transform="translate(658,88)"/>
<path d="M0 0 C1.14597656 -0.01224609 2.29195313 -0.02449219 3.47265625 -0.03710938 C4.57996094 -0.03904297 5.68726562 -0.04097656 6.828125 -0.04296875 C8.35034668 -0.04913208 8.35034668 -0.04913208 9.90332031 -0.05541992 C12.89245144 0.19965602 15.01833133 0.99179971 17.75 2.1875 C19.67903132 2.4634478 21.6189032 2.67199903 23.5625 2.8125 C24.53832031 2.88726563 25.51414062 2.96203125 26.51953125 3.0390625 C27.25558594 3.08804687 27.99164063 3.13703125 28.75 3.1875 C28.75 3.8475 28.75 4.5075 28.75 5.1875 C29.4925 5.47625 30.235 5.765 31 6.0625 C33.31739797 7.01052644 35.52917115 8.03595911 37.75 9.1875 C37.42 10.1775 37.09 11.1675 36.75 12.1875 C34.44 11.5275 32.13 10.8675 29.75 10.1875 C29.75 9.5275 29.75 8.8675 29.75 8.1875 C27.44 8.1875 25.13 8.1875 22.75 8.1875 C22.255 6.7025 22.255 6.7025 21.75 5.1875 C20.698125 5.22875 19.64625 5.27 18.5625 5.3125 C14.75 5.1875 14.75 5.1875 12.625 4.21875 C8.44503028 2.71941304 4.34802995 2.72037132 -0.0625 2.5625 C-0.94615234 2.52382813 -1.82980469 2.48515625 -2.74023438 2.4453125 C-4.90982972 2.35149216 -7.07988547 2.26842674 -9.25 2.1875 C-9.25 2.8475 -9.25 3.5075 -9.25 4.1875 C-10.10464844 4.32027344 -10.95929688 4.45304687 -11.83984375 4.58984375 C-12.94457031 4.76644531 -14.04929688 4.94304688 -15.1875 5.125 C-16.28964844 5.29902344 -17.39179687 5.47304688 -18.52734375 5.65234375 C-21.15426929 5.90595136 -21.15426929 5.90595136 -22.25 7.1875 C-23.66439104 7.3190033 -25.08188775 7.41782462 -26.5 7.5 C-30.93845782 7.94804622 -32.93001421 9.12961835 -36.25 12.1875 C-37.405 12.80625 -38.56 13.425 -39.75 14.0625 C-42.4445015 15.52690299 -44.11572958 17.01973132 -46 19.4375 C-46.7425 20.345 -47.485 21.2525 -48.25 22.1875 C-49.24 22.1875 -50.23 22.1875 -51.25 22.1875 C-51.37375 22.785625 -51.4975 23.38375 -51.625 24 C-52.25 26.1875 -52.25 26.1875 -54.25 29.1875 C-54.91 29.1875 -55.57 29.1875 -56.25 29.1875 C-56.3325 29.703125 -56.415 30.21875 -56.5 30.75 C-57.36366471 33.5569103 -58.77047995 35.86142282 -60.265625 38.375 C-61.61961621 40.86806317 -62.41341049 43.48467235 -63.25 46.1875 C-63.745 46.6825 -63.745 46.6825 -64.25 47.1875 C-64.45968751 49.51736123 -64.61815389 51.85194036 -64.75 54.1875 C-65.13888889 61.07638889 -65.13888889 61.07638889 -66.25 62.1875 C-63.27445428 63.67527286 -60.57497547 63.31742478 -57.2578125 63.3203125 C-56.556633 63.32126923 -55.85545349 63.32222595 -55.13302612 63.32321167 C-53.64174307 63.32389329 -52.15045707 63.32204026 -50.65917969 63.31787109 C-48.41854817 63.3126024 -46.17812458 63.31777448 -43.9375 63.32421875 C-28.12660402 64.27571521 -28.12660402 64.27571521 -14 59.125 C-13.27296875 58.57714844 -12.5459375 58.02929688 -11.796875 57.46484375 C-11.03117187 56.83255859 -11.03117187 56.83255859 -10.25 56.1875 C-10.58 57.1775 -10.91 58.1675 -11.25 59.1875 C-11.91 59.1875 -12.57 59.1875 -13.25 59.1875 C-13.58 60.1775 -13.91 61.1675 -14.25 62.1875 C-21.45191503 67.42525638 -28.58794626 68.6327788 -37.21875 68.48046875 C-38.13966431 68.47622391 -39.06057861 68.47197906 -40.00939941 68.46760559 C-42.92324245 68.45094065 -45.83636939 68.41331188 -48.75 68.375 C-50.73696911 68.35993739 -52.72394917 68.34625175 -54.7109375 68.33398438 C-59.55756357 68.30107716 -64.40366078 68.24938031 -69.25 68.1875 C-69.25 62.5775 -69.25 56.9675 -69.25 51.1875 C-68.26 51.1875 -67.27 51.1875 -66.25 51.1875 C-66.4046875 49.7025 -66.4046875 49.7025 -66.5625 48.1875 C-66.57088167 44.02180901 -64.93725412 41.61449247 -62.62890625 38.25390625 C-60.49565285 35.05704775 -58.91751387 31.64604728 -57.25 28.1875 C-56.59 28.1875 -55.93 28.1875 -55.25 28.1875 C-54.92 26.5375 -54.59 24.8875 -54.25 23.1875 C-53.59 23.1875 -52.93 23.1875 -52.25 23.1875 C-51.59 21.5375 -50.93 19.8875 -50.25 18.1875 C-49.59 18.1875 -48.93 18.1875 -48.25 18.1875 C-47.92 17.1975 -47.59 16.2075 -47.25 15.1875 C-45.1875 14.5 -45.1875 14.5 -43.25 14.1875 C-43.25 13.5275 -43.25 12.8675 -43.25 12.1875 C-42.26 11.8575 -41.27 11.5275 -40.25 11.1875 C-39.755 10.671875 -39.26 10.15625 -38.75 9.625 C-37.25 8.1875 -37.25 8.1875 -34.25 8.1875 C-34.25 7.5275 -34.25 6.8675 -34.25 6.1875 C-33.64671875 6.13851563 -33.0434375 6.08953125 -32.421875 6.0390625 C-31.62265625 5.96429687 -30.8234375 5.88953125 -30 5.8125 C-29.21109375 5.74289063 -28.4221875 5.67328125 -27.609375 5.6015625 C-25.13868696 5.16796493 -23.45968148 4.3428603 -21.25 3.1875 C-19.86466697 2.79426075 -18.46796106 2.43878962 -17.0625 2.125 C-11.04406207 0.64505625 -6.57864843 0.00365075 0 0 Z " fill="#8591FF" transform="translate(101.25,22.8125)"/>
<path d="M0 0 C1.65 0 3.3 0 5 0 C5.25523438 0.81791016 5.25523438 0.81791016 5.515625 1.65234375 C9.12762119 13.64991362 9.12762119 13.64991362 17 23 C19.34124865 23.92674426 21.52302278 24.46575001 24 25 C24 25.66 24 26.32 24 27 C25.03125 27.0825 26.0625 27.165 27.125 27.25 C31.39609725 28.07666398 33.73810891 29.1359005 37 32 C37.16015625 34.640625 37.16015625 34.640625 37 37 C34.96023786 37.96238036 32.91809954 38.91972527 30.875 39.875 C29.73804688 40.40867188 28.60109375 40.94234375 27.4296875 41.4921875 C24.32130479 42.858743 21.23795004 43.98629528 18 45 C18 45.66 18 46.32 18 47 C16.68 47 15.36 47 14 47 C13.71125 47.598125 13.4225 48.19625 13.125 48.8125 C12 51 12 51 10 54 C5.88942806 63.88405156 6.4447248 74.68656805 6.3125 85.1875 C6.27926678 87.0162996 6.24477175 88.84507672 6.20898438 90.67382812 C6.12477287 95.11576004 6.05764326 99.55764713 6 104 C5.34 104 4.68 104 4 104 C3.95065846 97.91277254 3.91430833 91.8256608 3.89013672 85.73828125 C3.88006288 83.66632053 3.86640334 81.59437407 3.84912109 79.52246094 C3.82493336 76.54879236 3.81353092 73.5753113 3.8046875 70.6015625 C3.78920364 69.20618759 3.78920364 69.20618759 3.77340698 67.78262329 C3.77325592 66.92188202 3.77310486 66.06114075 3.77294922 65.17431641 C3.768508 64.41486725 3.76406677 63.65541809 3.75949097 62.87295532 C4 61 4 61 6 59 C6.28875 58.071875 6.5775 57.14375 6.875 56.1875 C8.08651978 52.75486061 9.709348 50.79173213 12 48 C12.309375 47.0925 12.61875 46.185 12.9375 45.25 C13.4634375 44.13625 13.4634375 44.13625 14 43 C16.625 42.1875 16.625 42.1875 19 42 C19 41.01 19 40.02 19 39 C20.051875 38.87625 21.10375 38.7525 22.1875 38.625 C25.48020789 38.08521182 27.95631034 37.26820402 31 36 C31.99 36 32.98 36 34 36 C34 35.01 34 34.02 34 33 C31.03 32.67 28.06 32.34 25 32 C25 31.01 25 30.02 25 29 C23.02 29 21.04 29 19 29 C19 28.34 19 27.68 19 27 C18.195625 26.731875 17.39125 26.46375 16.5625 26.1875 C15.716875 25.795625 14.87125 25.40375 14 25 C13.67 24.01 13.34 23.02 13 22 C12.01 21.67 11.02 21.34 10 21 C5.18896603 16.18896603 4.80804897 8.46439178 4 2 C2.68 2 1.36 2 0 2 C-0.103125 3.258125 -0.20625 4.51625 -0.3125 5.8125 C-0.64858808 8.60499657 -0.80025876 9.74433121 -2.5625 12 C-3.036875 12.33 -3.51125 12.66 -4 13 C-3.40895235 8.15340923 -2.02055843 4.39251833 0 0 Z " fill="#B2BAFF" transform="translate(100,59)"/>
<path d="M0 0 C0.66 0 1.32 0 2 0 C2.57952584 12.06272298 2.57952584 12.06272298 -1 17 C-3.9152475 19.42937292 -5.71943286 19.96492911 -9.5 20.4375 C-13.70208359 19.91223955 -15.30036482 19.27228507 -18 16 C-18.71299256 13.17121651 -18.68908273 10.83224683 -18 8 C-14.50316417 3.37918122 -8.94385201 2.79140184 -3.546875 1.61328125 C-1.07957907 1.25355209 -1.07957907 1.25355209 0 0 Z " fill="#FAFAFF" transform="translate(314,106)"/>
<path d="M0 0 C13.86 0 27.72 0 42 0 C42 0.66 42 1.32 42 2 C44.64 2.33 47.28 2.66 50 3 C50.495 4.485 50.495 4.485 51 6 C48.83125748 5.49396008 47.00032373 5.00016187 45 4 C43.58117119 3.88252522 42.15728586 3.82314572 40.73388672 3.79467773 C39.41274368 3.7647599 39.41274368 3.7647599 38.06491089 3.73423767 C37.11278717 3.71752518 36.16066345 3.70081268 35.1796875 3.68359375 C34.20589142 3.66281265 33.23209534 3.64203156 32.22879028 3.62062073 C29.11093353 3.55511402 25.99299097 3.49623503 22.875 3.4375 C20.76431396 3.39431585 18.65363667 3.3507016 16.54296875 3.30664062 C11.3620705 3.19943153 6.18108644 3.09766722 1 3 C1.09213805 9.22993173 1.19942557 15.45946879 1.31738281 21.68896484 C1.35572842 23.8093469 1.39057133 25.92979526 1.421875 28.05029297 C1.46740466 31.09366598 1.52541839 34.13658032 1.5859375 37.1796875 C1.59748871 38.13181122 1.60903992 39.08393494 1.62094116 40.06491089 C1.64081085 40.94567291 1.66068054 41.82643494 1.68115234 42.73388672 C1.69447601 43.51110077 1.70779968 44.28831482 1.7215271 45.08908081 C1.84039576 47.2388947 1.84039576 47.2388947 4 49 C4.103125 50.299375 4.20625 51.59875 4.3125 52.9375 C4.45702753 55.07295978 4.45702753 55.07295978 5 57 C7.44309577 58.91744593 7.44309577 58.91744593 10 60 C10 60.66 10 61.32 10 62 C11.65 62.33 13.3 62.66 15 63 C15.495 64.485 15.495 64.485 16 66 C14.68 66 13.36 66 12 66 C12 65.34 12 64.68 12 64 C10.35 64 8.7 64 7 64 C6.731875 63.360625 6.46375 62.72125 6.1875 62.0625 C5.11332248 59.66868314 5.11332248 59.66868314 2 59 C2 57.35 2 55.7 2 54 C1.34 54 0.68 54 0 54 C0 36.18 0 18.36 0 0 Z " fill="#8591FF" transform="translate(32,97)"/>
<path d="M0 0 C2.96912882 1.38980498 4.69657028 2.69657028 7 5 C7.33 7.31 7.66 9.62 8 12 C-0.25 12 -8.5 12 -17 12 C-15.96418824 5.78512943 -15.49754628 4.83936878 -11 1 C-7.55643018 -0.72178491 -3.7728428 -0.37858976 0 0 Z " fill="#FBFBFF" transform="translate(592,87)"/>
<path d="M0 0 C2.96912882 1.38980498 4.69657028 2.69657028 7 5 C7.33 7.31 7.66 9.62 8 12 C-0.25 12 -8.5 12 -17 12 C-15.96418824 5.78512943 -15.49754628 4.83936878 -11 1 C-7.55643018 -0.72178491 -3.7728428 -0.37858976 0 0 Z " fill="#FBFBFF" transform="translate(424,87)"/>
<path d="M0 0 C0.33 0 0.66 0 1 0 C1.02689216 1.47906892 1.04634621 2.95827483 1.0625 4.4375 C1.07410156 5.26121094 1.08570313 6.08492188 1.09765625 6.93359375 C1 9 1 9 0 10 C2.97554572 11.48777286 5.67502453 11.12992478 8.9921875 11.1328125 C9.693367 11.13376923 10.39454651 11.13472595 11.11697388 11.13571167 C12.60825693 11.13639329 14.09954293 11.13454026 15.59082031 11.13037109 C17.83145183 11.1251024 20.07187542 11.13027448 22.3125 11.13671875 C38.12339598 12.08821521 38.12339598 12.08821521 52.25 6.9375 C52.97703125 6.38964844 53.7040625 5.84179688 54.453125 5.27734375 C55.21882813 4.64505859 55.21882813 4.64505859 56 4 C55.67 4.99 55.34 5.98 55 7 C54.34 7 53.68 7 53 7 C52.67 7.99 52.34 8.98 52 10 C44.79808497 15.23775638 37.66205374 16.4452788 29.03125 16.29296875 C28.11033569 16.28872391 27.18942139 16.28447906 26.24060059 16.28010559 C23.32675755 16.26344065 20.41363061 16.22581188 17.5 16.1875 C15.51303089 16.17243739 13.52605083 16.15875175 11.5390625 16.14648438 C6.69243643 16.11357716 1.84633922 16.06188031 -3 16 C-3 13.03 -3 10.06 -3 7 C-2.34 7 -1.68 7 -1 7 C-0.67 4.69 -0.34 2.38 0 0 Z " fill="#7C89FF" transform="translate(35,75)"/>
<path d="M0 0 C6.63579656 1.13756512 9.93085958 2.53209255 14 8 C14.9075 8.886875 15.815 9.77375 16.75 10.6875 C19 13 19 13 19 15 C19.66 15 20.32 15 21 15 C21.26554687 15.62648438 21.53109375 16.25296875 21.8046875 16.8984375 C22.33449219 18.12433594 22.33449219 18.12433594 22.875 19.375 C23.22304687 20.18710937 23.57109375 20.99921875 23.9296875 21.8359375 C24.92446067 24.13802299 24.92446067 24.13802299 27 26 C28.46931212 30.49976837 29.48519426 35.05741848 30.4375 39.69140625 C30.97571733 42.09929235 30.97571733 42.09929235 32.01799011 44.71929932 C33.07414372 48.2476995 33.2601886 51.12259577 33.2746582 54.79980469 C33.27976913 55.45095749 33.28488007 56.10211029 33.29014587 56.772995 C33.30394657 58.9060507 33.30309367 61.03878023 33.30078125 63.171875 C33.3046709 64.66066609 33.30900613 66.14945607 33.31376648 67.63824463 C33.32120623 70.74828707 33.32095191 73.85821591 33.31567383 76.96826172 C33.30985472 80.95884157 33.32687917 84.94896096 33.3500185 88.93946457 C33.36471968 92.00889819 33.365633 95.07821961 33.36250877 98.14768219 C33.36302292 99.61973235 33.36827805 101.09178864 33.37832069 102.56380463 C33.39061056 104.61543765 33.38394194 106.6661559 33.37231445 108.71777344 C33.37294388 109.88548279 33.3735733 111.05319214 33.3742218 112.25628662 C33.25072861 113.16171204 33.12723541 114.06713745 33 115 C32.01 115.66 31.02 116.32 30 117 C29.957279 115.33388095 29.95936168 113.66617115 30 112 C30.33 111.67 30.66 111.34 31 111 C31.10955462 109.20281146 31.14909722 107.40131446 31.16113281 105.60083008 C31.17074036 104.44484818 31.1803479 103.28886627 31.19024658 102.09785461 C31.1966214 100.20283455 31.1966214 100.20283455 31.203125 98.26953125 C31.21167511 96.32381477 31.21167511 96.32381477 31.22039795 94.33879089 C31.23093048 91.57880258 31.23675523 88.8188435 31.24023438 86.05883789 C31.24565844 82.56142101 31.26954278 79.06440558 31.29820633 75.56711292 C31.32161993 72.1970957 31.32330456 68.82712535 31.328125 65.45703125 C31.3404718 64.21999954 31.3528186 62.98296783 31.36553955 61.70845032 C31.33822007 50.81233404 30.55420349 39.09131452 24 30 C23.34 29.67 22.68 29.34 22 29 C22 27.02 22 25.04 22 23 C21.34 23 20.68 23 20 23 C19.71125 22.360625 19.4225 21.72125 19.125 21.0625 C18.17176549 18.84793921 18.17176549 18.84793921 16 18 C15.7525 17.113125 15.505 16.22625 15.25 15.3125 C13.30574748 10.16023083 10.07617289 6.99295225 5.125 4.625 C4.42375 4.41875 3.7225 4.2125 3 4 C3 3.34 3 2.68 3 2 C2.01 1.67 1.02 1.34 0 1 C0 0.67 0 0.34 0 0 Z " fill="#AFB7FF" transform="translate(139,35)"/>
<path d="M0 0 C1.98 0 3.96 0 6 0 C2.98005827 2.35200168 -0.16178845 4.33616918 -3.4375 6.3125 C-6.8039219 8.4193153 -9.56153845 10.29061689 -12 13.4375 C-12.99 14.7059375 -12.99 14.7059375 -14 16 C-14.99 16 -15.98 16 -17 16 C-17.12375 16.598125 -17.2475 17.19625 -17.375 17.8125 C-18 20 -18 20 -20 23 C-20.66 23 -21.32 23 -22 23 C-22.0825 23.515625 -22.165 24.03125 -22.25 24.5625 C-23.1163819 27.37824116 -24.53471742 29.69113893 -26.0234375 32.21875 C-27.39458805 34.7197286 -28.1813552 37.27118399 -29 40 C-29.51782281 41.54268046 -30.03885829 43.08428496 -30.5625 44.625 C-31.501145 47.397164 -32.32345384 50.15206282 -33 53 C-33.66 53 -34.32 53 -35 53 C-35 50.36 -35 47.72 -35 45 C-34.01 45 -33.02 45 -32 45 C-32.1546875 43.515 -32.1546875 43.515 -32.3125 42 C-32.32088167 37.83430901 -30.68725412 35.42699247 -28.37890625 32.06640625 C-26.24565285 28.86954775 -24.66751387 25.45854728 -23 22 C-22.34 22 -21.68 22 -21 22 C-20.67 20.35 -20.34 18.7 -20 17 C-19.34 17 -18.68 17 -18 17 C-17.34 15.35 -16.68 13.7 -16 12 C-15.34 12 -14.68 12 -14 12 C-13.67 11.01 -13.34 10.02 -13 9 C-10.9375 8.3125 -10.9375 8.3125 -9 8 C-9 7.34 -9 6.68 -9 6 C-8.01 5.67 -7.02 5.34 -6 5 C-5.505 4.484375 -5.01 3.96875 -4.5 3.4375 C-3 2 -3 2 0 2 C0 1.34 0 0.68 0 0 Z " fill="#D7DBFF" transform="translate(67,29)"/>
<path d="M0 0 C5.00462084 3.97000646 5.111905 11.06331025 6 17 C6.35686998 21.82763017 6.37642247 26.61808591 6.328125 31.45703125 C6.32625183 32.76661301 6.32437866 34.07619476 6.32244873 35.42546082 C6.31790212 38.16243354 6.30368129 40.89910267 6.28125 43.63598633 C6.25260465 47.14875116 6.24199607 50.66128269 6.2375679 54.17415333 C6.23243534 57.53931539 6.21791249 60.90439684 6.203125 64.26953125 C6.19887512 65.53287796 6.19462524 66.79622467 6.19024658 68.09785461 C6.18063904 69.25383652 6.17103149 70.40981842 6.16113281 71.60083008 C6.15430481 72.62227615 6.14747681 73.64372223 6.14044189 74.69612122 C6 77 6 77 5 78 C4.63239269 80.32817964 4.29758419 82.6618385 4 85 C2.515 85.495 2.515 85.495 1 86 C0.67 86.99 0.34 87.98 0 89 C-0.66 89 -1.32 89 -2 89 C-2 89.66 -2 90.32 -2 91 C-2.639375 91.12375 -3.27875 91.2475 -3.9375 91.375 C-4.9584375 91.684375 -4.9584375 91.684375 -6 92 C-6.495 92.99 -6.495 92.99 -7 94 C-7.99 94 -8.98 94 -10 94 C-9.67 92.68 -9.34 91.36 -9 90 C-7.02 90 -5.04 90 -3 90 C-3 89.34 -3 88.68 -3 88 C-2.195625 87.484375 -1.39125 86.96875 -0.5625 86.4375 C2.73839843 83.297621 2.69469751 81.22398762 2.95703125 76.828125 C2.97121094 76.22484375 2.98539063 75.6215625 3 75 C3.66 75 4.32 75 5 75 C4.90728483 67.61655904 4.79992357 60.23343268 4.68261719 52.8503418 C4.64445157 50.34127572 4.60957754 47.83215725 4.578125 45.32299805 C4.53220433 41.70602759 4.47425441 38.08941401 4.4140625 34.47265625 C4.40251129 33.35979752 4.39096008 32.24693878 4.37905884 31.10035706 C4.2735 25.46681635 3.86446651 20.27037862 2.4420166 14.80834961 C1.56267744 11.21085433 1.88333479 7.67495399 2 4 C1.34 4 0.68 4 0 4 C0 2.68 0 1.36 0 0 Z " fill="#7A87FF" transform="translate(165,69)"/>
<path d="M0 0 C0.33 0 0.66 0 1 0 C1.00808685 0.54679413 1.01617371 1.09358826 1.02450562 1.6569519 C1.11038769 7.33453114 1.20988325 13.0117546 1.31738281 18.68896484 C1.35572842 20.8093469 1.39057133 22.92979526 1.421875 25.05029297 C1.46740466 28.09366598 1.52541839 31.13658032 1.5859375 34.1796875 C1.59748871 35.13181122 1.60903992 36.08393494 1.62094116 37.06491089 C1.64081085 37.94567291 1.66068054 38.82643494 1.68115234 39.73388672 C1.69447601 40.51110077 1.70779968 41.28831482 1.7215271 42.08908081 C1.84039576 44.2388947 1.84039576 44.2388947 4 46 C4.103125 47.299375 4.20625 48.59875 4.3125 49.9375 C4.45702753 52.07295978 4.45702753 52.07295978 5 54 C7.44309577 55.91744593 7.44309577 55.91744593 10 57 C10 57.66 10 58.32 10 59 C11.65 59.33 13.3 59.66 15 60 C15.33 60.99 15.66 61.98 16 63 C14.68 63 13.36 63 12 63 C12 62.34 12 61.68 12 61 C10.35 61 8.7 61 7 61 C6.731875 60.360625 6.46375 59.72125 6.1875 59.0625 C5.11332248 56.66868314 5.11332248 56.66868314 2 56 C2 54.35 2 52.7 2 51 C1.34 51 0.68 51 0 51 C0 34.17 0 17.34 0 0 Z " fill="#6575FF" transform="translate(32,100)"/>
<path d="M0 0 C3.0996593 -0.39570119 5.12198451 -0.49754211 7.875 1.0625 C9.61973477 4.06732099 9.30835443 6.60810131 9 10 C7 12 7 12 5.0546875 12.1953125 C3.03645833 12.13020833 1.01822917 12.06510417 -1 12 C-2.53224072 9.56644121 -3.03344238 8.34278436 -2.75 5.4375 C-2 3 -2 3 0 0 Z " fill="#7D8AFF" transform="translate(161,24)"/>
<path d="M0 0 C0 0.99 0 1.98 0 3 C-0.66 3 -1.32 3 -2 3 C-2.33 3.99 -2.66 4.98 -3 6 C-10.20191503 11.23775638 -17.33794626 12.4452788 -25.96875 12.29296875 C-26.88966431 12.28872391 -27.81057861 12.28447906 -28.75939941 12.28010559 C-31.67324245 12.26344065 -34.58636939 12.22581188 -37.5 12.1875 C-39.48696911 12.17243739 -41.47394917 12.15875175 -43.4609375 12.14648438 C-48.30756357 12.11357716 -53.15366078 12.06188031 -58 12 C-58 11.34 -58 10.68 -58 10 C-56.16223999 9.98598145 -56.16223999 9.98598145 -54.28735352 9.97167969 C-49.70789267 9.93157251 -45.12908906 9.8657572 -40.55004883 9.79248047 C-38.57454928 9.7643905 -36.59893985 9.74311686 -34.62329102 9.72900391 C-31.7704287 9.70740767 -28.91887109 9.66067366 -26.06640625 9.609375 C-25.19415909 9.60814636 -24.32191193 9.60691772 -23.42323303 9.60565186 C-14.05004367 9.38567062 -7.31320495 5.60160379 0 0 Z " fill="#B7BEFF" transform="translate(90,79)"/>
<path d="M0 0 C0.33 0 0.66 0 1 0 C1 1.65 1 3.3 1 5 C1.99 5.33 2.98 5.66 4 6 C4 8.64 4 11.28 4 14 C4.66 14 5.32 14 6 14 C7.49282393 16.98564786 7.11916977 19.68983718 7.11352539 23.02001953 C7.11367142 23.74207581 7.11381744 24.46413208 7.1139679 25.20806885 C7.11327007 27.59968041 7.10548375 29.99121451 7.09765625 32.3828125 C7.09579161 34.03905189 7.09436792 35.69529184 7.09336853 37.35153198 C7.08954699 41.71467608 7.07971978 46.077787 7.06866455 50.44091797 C7.05844264 54.89159699 7.05386924 59.34228137 7.04882812 63.79296875 C7.0380972 72.52866108 7.02102512 81.26432641 7 90 C6.01 90 5.02 90 4 90 C4.495 89.505 4.495 89.505 5 89 C5.11520273 86.99381231 5.15969236 84.98353919 5.17700195 82.97412109 C5.18983719 81.68122162 5.20267242 80.38832214 5.21589661 79.0562439 C5.2240733 77.62864568 5.23151523 76.2010431 5.23828125 74.7734375 C5.24235678 74.05389515 5.2464323 73.3343528 5.25063133 72.59300613 C5.27154395 68.76968928 5.28581165 64.94640865 5.29516602 61.12304688 C5.30611999 57.21086903 5.34037331 53.29927761 5.38033772 49.38730431 C5.40678869 46.35166538 5.41488367 43.31615854 5.41844749 40.28041458 C5.42325653 38.84140783 5.43470348 37.40240463 5.45348549 35.96351242 C5.5784176 25.73998412 4.29531059 16.68058851 1 7 C0.67 6.67 0.34 6.34 0 6 C-0.04080783 4.00041636 -0.04254356 1.99954746 0 0 Z " fill="#E4E7FF" transform="translate(166,61)"/>
<path d="M0 0 C3.76799241 0.29580501 6.38182143 0.65177901 9.0625 3.5 C9.48056342 6.87165435 9.34778852 10.12091597 9.0625 13.5 C7.7425 13.83 6.4225 14.16 5.0625 14.5 C5.0625 15.16 5.0625 15.82 5.0625 16.5 C1.7625 16.5 -1.5375 16.5 -4.9375 16.5 C-5.2675 14.52 -5.5975 12.54 -5.9375 10.5 C-6.5975 10.5 -7.2575 10.5 -7.9375 10.5 C-8.31284065 7.21576929 -8.01212392 5.63991985 -6.4375 2.6875 C-3.9375 0.5 -3.9375 0.5 0 0 Z M-4.875 3.0625 C-6.37043548 6.49320493 -5.74974579 8.9125811 -4.9375 12.5 C-3.04261048 14.39488952 -0.36610854 13.68019112 2.15234375 13.73046875 C4.3037636 13.6702792 4.3037636 13.6702792 6.0625 11.5 C6.5265446 6.83771115 6.5265446 6.83771115 4.9375 2.5625 C1.43458219 0.57751324 -1.71536123 0.51440421 -4.875 3.0625 Z " fill="#C7CCFF" transform="translate(163.9375,22.5)"/>
<path d="M0 0 C1.11789265 0.83612245 2.21866998 1.69513582 3.3125 2.5625 C3.92738281 3.03816406 4.54226562 3.51382813 5.17578125 4.00390625 C10.39647618 9.71648678 10.41557467 15.97372965 10.29296875 23.30859375 C10.28872391 24.27531509 10.28447906 25.24203644 10.28010559 26.23805237 C10.26340522 29.30482649 10.22576899 32.3709268 10.1875 35.4375 C10.172442 37.52538109 10.15875555 39.61327255 10.14648438 41.70117188 C10.11352999 46.80103815 10.06180751 51.9004051 10 57 C9.67 57 9.34 57 9 57 C8.98541748 56.14994385 8.97083496 55.2998877 8.95581055 54.42407227 C9.73770208 26.74054827 9.73770208 26.74054827 0 2 C0 1.34 0 0.68 0 0 Z " fill="#B0B8FF" transform="translate(89,106)"/>
<path d="M0 0 C1.65 0 3.3 0 5 0 C5.25523438 0.81791016 5.25523438 0.81791016 5.515625 1.65234375 C8.41156365 10.66364221 10.99973267 17.47702362 18 24 C18 24.66 18 25.32 18 26 C19.65 26.66 21.3 27.32 23 28 C21.68 28.33 20.36 28.66 19 29 C19 28.34 19 27.68 19 27 C18.195625 26.731875 17.39125 26.46375 16.5625 26.1875 C15.716875 25.795625 14.87125 25.40375 14 25 C13.67 24.01 13.34 23.02 13 22 C12.01 21.67 11.02 21.34 10 21 C5.18896603 16.18896603 4.80804897 8.46439178 4 2 C2.68 2 1.36 2 0 2 C-0.103125 3.258125 -0.20625 4.51625 -0.3125 5.8125 C-0.64858808 8.60499657 -0.80025876 9.74433121 -2.5625 12 C-3.036875 12.33 -3.51125 12.66 -4 13 C-3.40895235 8.15340923 -2.02055843 4.39251833 0 0 Z " fill="#B3BAFF" transform="translate(100,59)"/>
<path d="M0 0 C1.14597656 -0.01224609 2.29195312 -0.02449219 3.47265625 -0.03710938 C4.57996094 -0.03904297 5.68726563 -0.04097656 6.828125 -0.04296875 C7.84293945 -0.04707764 8.85775391 -0.05118652 9.90332031 -0.05541992 C12.89245144 0.19965602 15.01833133 0.99179971 17.75 2.1875 C19.67903132 2.4634478 21.6189032 2.67199903 23.5625 2.8125 C24.53832031 2.88726563 25.51414063 2.96203125 26.51953125 3.0390625 C27.25558594 3.08804687 27.99164063 3.13703125 28.75 3.1875 C28.75 3.8475 28.75 4.5075 28.75 5.1875 C29.4925 5.47625 30.235 5.765 31 6.0625 C33.31739797 7.01052644 35.52917115 8.03595911 37.75 9.1875 C37.42 10.1775 37.09 11.1675 36.75 12.1875 C36.069375 11.548125 35.38875 10.90875 34.6875 10.25 C31.27172982 7.85169328 28.84004693 7.65052418 24.75 7.1875 C24.09 6.5275 23.43 5.8675 22.75 5.1875 C12.07888241 0.9312718 0.0436169 1.46034365 -11.25 1.1875 C-11.25 1.8475 -11.25 2.5075 -11.25 3.1875 C-14.46451269 4.79475635 -17.68612536 4.24498185 -21.25 4.1875 C-21.25 3.8575 -21.25 3.5275 -21.25 3.1875 C-20.68410156 3.05472656 -20.11820312 2.92195313 -19.53515625 2.78515625 C-18.43494141 2.52025391 -18.43494141 2.52025391 -17.3125 2.25 C-16.58160156 2.07597656 -15.85070312 1.90195312 -15.09765625 1.72265625 C-10.01283909 0.2498868 -5.69815367 0.00316213 0 0 Z " fill="#AFB7FF" transform="translate(101.25,22.8125)"/>
<path d="M0 0 C0.33 0 0.66 0 1 0 C0.67 14.85 0.34 29.7 0 45 C-0.66 45 -1.32 45 -2 45 C-2.04958399 39.55567744 -2.08580666 34.11148751 -2.10986328 28.66699219 C-2.11989631 26.81638294 -2.13352586 24.96578945 -2.15087891 23.11523438 C-2.17524608 20.4491791 -2.18651023 17.78333416 -2.1953125 15.1171875 C-2.20563507 14.29507782 -2.21595764 13.47296814 -2.22659302 12.62594604 C-2.2274861 8.01244664 -1.76556724 4.34366196 0 0 Z " fill="#7280FF" transform="translate(108,118)"/>
<path d="M0 0 C5.99567472 -0.04960464 11.99122875 -0.08581647 17.98706055 -0.10986328 C20.02484215 -0.11989285 22.06260946 -0.13351978 24.1003418 -0.15087891 C27.0369826 -0.17526127 29.97343235 -0.18651377 32.91015625 -0.1953125 C33.81459976 -0.20563507 34.71904327 -0.21595764 35.65089417 -0.22659302 C40.85054223 -0.22750597 45.07798541 0.30888054 50 2 C50.99 2.33 51.98 2.66 53 3 C53 3.99 53 4.98 53 6 C53.99 6 54.98 6 56 6 C56.495 7.485 56.495 7.485 57 9 C54.97954558 8.39816251 52.97888961 7.72693904 51 7 C50.505 6.01 50.505 6.01 50 5 C48.11235097 4.31527335 48.11235097 4.31527335 45.9375 3.875 C45.20402344 3.70742187 44.47054687 3.53984375 43.71484375 3.3671875 C43.14894531 3.24601562 42.58304688 3.12484375 42 3 C42 2.34 42 1.68 42 1 C28.14 1 14.28 1 0 1 C0 0.67 0 0.34 0 0 Z " fill="#BDC4FF" transform="translate(32,96)"/>
<path d="M0 0 C1.05904289 0.00212242 1.05904289 0.00212242 2.13948059 0.00428772 C4.39120751 0.00987861 6.64283446 0.02242937 8.89453125 0.03515625 C10.4225246 0.04017243 11.95051952 0.04473513 13.47851562 0.04882812 C17.2213926 0.05984505 20.96419498 0.07710338 24.70703125 0.09765625 C24.70703125 0.75765625 24.70703125 1.41765625 24.70703125 2.09765625 C27.01703125 2.42765625 29.32703125 2.75765625 31.70703125 3.09765625 C31.70703125 3.42765625 31.70703125 3.75765625 31.70703125 4.09765625 C30.24823016 3.95657878 28.78999574 3.8096321 27.33203125 3.66015625 C26.11386719 3.53833984 26.11386719 3.53833984 24.87109375 3.4140625 C22.70703125 3.09765625 22.70703125 3.09765625 20.70703125 2.09765625 C16.56613012 1.85455451 12.41676755 1.91245644 8.26953125 1.91015625 C6.53219727 1.89178711 6.53219727 1.89178711 4.75976562 1.87304688 C3.65052734 1.87111328 2.54128906 1.86917969 1.3984375 1.8671875 C-0.12994751 1.86102417 -0.12994751 1.86102417 -1.68920898 1.85473633 C-4.52865112 1.91171463 -4.52865112 1.91171463 -7.29296875 4.09765625 C-9.44921875 4.73046875 -9.44921875 4.73046875 -11.79296875 5.22265625 C-12.56640625 5.39023437 -13.33984375 5.5578125 -14.13671875 5.73046875 C-16.29296875 6.09765625 -16.29296875 6.09765625 -19.29296875 6.09765625 C-15.85227251 3.80385876 -14.57006574 3.09765625 -10.29296875 3.09765625 C-10.29296875 2.43765625 -10.29296875 1.77765625 -10.29296875 1.09765625 C-6.78672445 -0.07109185 -3.64518215 -0.02748642 0 0 Z " fill="#E6E9FF" transform="translate(93.29296875,21.90234375)"/>
<path d="M0 0 C0.66 0.33 1.32 0.66 2 1 C0.625 3 0.625 3 -1 5 C-1.66 5 -2.32 5 -3 5 C-3.0825 5.515625 -3.165 6.03125 -3.25 6.5625 C-4.1163819 9.37824116 -5.53471742 11.69113893 -7.0234375 14.21875 C-8.39458805 16.7197286 -9.1813552 19.27118399 -10 22 C-10.51782281 23.54268046 -11.03885829 25.08428496 -11.5625 26.625 C-12.501145 29.397164 -13.32345384 32.15206282 -14 35 C-14.66 35 -15.32 35 -16 35 C-16 32.36 -16 29.72 -16 27 C-15.01 27 -14.02 27 -13 27 C-13.103125 26.01 -13.20625 25.02 -13.3125 24 C-13.32089751 19.82643609 -11.68176348 17.41421322 -9.36328125 14.05078125 C-8.00581778 12.00875168 -6.97146314 9.97034315 -5.9375 7.75 C-4.40460885 4.57159712 -2.71070248 2.32345927 0 0 Z " fill="#ACB4FF" transform="translate(48,47)"/>
<path d="M0 0 C0.66 0 1.32 0 2 0 C2 17.16 2 34.32 2 52 C1.67 52 1.34 52 1 52 C0.67 36.82 0.34 21.64 0 6 C-0.99 6.495 -0.99 6.495 -2 7 C-1.34 4.69 -0.68 2.38 0 0 Z " fill="#ECEEFF" transform="translate(526,84)"/>
<path d="M0 0 C0.66 0 1.32 0 2 0 C2 0.99 2 1.98 2 3 C-2.22857143 7 -2.22857143 7 -6 7 C-6.33 7.99 -6.66 8.98 -7 10 C-9.92079805 12.07530387 -11.37546731 13 -15 13 C-15 13.66 -15 14.32 -15 15 C-15.66 15 -16.32 15 -17 15 C-13.92887633 8.04877374 -7.45406879 4.48519715 -1 1 C-0.67 0.67 -0.34 0.34 0 0 Z " fill="#8D99FF" transform="translate(70,30)"/>
<path d="M0 0 C1.65 0 3.3 0 5 0 C5 0.66 5 1.32 5 2 C4.38125 2.04125 3.7625 2.0825 3.125 2.125 C2.42375 2.41375 1.7225 2.7025 1 3 C-0.1552144 5.71138905 -0.1552144 5.71138905 -1 9 C-3.24171976 15.05264334 -6.35115201 21.95118161 -12.19140625 25.23046875 C-12.78824219 25.48441406 -13.38507813 25.73835938 -14 26 C-13.505 24.515 -13.505 24.515 -13 23 C-12.34 23 -11.68 23 -11 23 C-10.896875 22.443125 -10.79375 21.88625 -10.6875 21.3125 C-9.85101237 18.49885978 -8.71782737 16.37853021 -7 14 C-6.01 14 -5.02 14 -4 14 C-4 12.02 -4 10.04 -4 8 C-3.01 7.67 -2.02 7.34 -1 7 C-0.67 4.69 -0.34 2.38 0 0 Z " fill="#8994FF" transform="translate(99,57)"/>
<path d="M0 0 C0.66 0 1.32 0 2 0 C2.391875 0.928125 2.78375 1.85625 3.1875 2.8125 C5.14739849 6.25921804 6.59760503 7.16086758 10 9 C10 9.66 10 10.32 10 11 C11.65 11.33 13.3 11.66 15 12 C15.33 12.99 15.66 13.98 16 15 C14.68 15 13.36 15 12 15 C12 14.34 12 13.68 12 13 C10.35 13 8.7 13 7 13 C6.731875 12.360625 6.46375 11.72125 6.1875 11.0625 C5.11332248 8.66868314 5.11332248 8.66868314 2 8 C2 6.35 2 4.7 2 3 C1.34 3 0.68 3 0 3 C0 2.01 0 1.02 0 0 Z " fill="#C8CEFF" transform="translate(32,148)"/>
<path d="M0 0 C6.63579656 1.13756512 9.93085958 2.53209255 14 8 C14.9075 8.886875 15.815 9.77375 16.75 10.6875 C19 13 19 13 19 15 C19.66 15 20.32 15 21 15 C20.67 15.66 20.34 16.32 20 17 C19.34 16.67 18.68 16.34 18 16 C18 15.34 18 14.68 18 14 C17.46375 13.79375 16.9275 13.5875 16.375 13.375 C14.11646963 12.06742979 12.83266927 10.87537313 11.0625 9 C8.58775375 6.41820365 6.49090674 5.02673728 3 4 C3 3.34 3 2.68 3 2 C2.01 1.67 1.02 1.34 0 1 C0 0.67 0 0.34 0 0 Z " fill="#D5D9FF" transform="translate(139,35)"/>
<path d="M0 0 C0.5775 0.20625 1.155 0.4125 1.75 0.625 C-4.10815989 3.65002956 -8.80659886 4.02981634 -15.33984375 3.91796875 C-16.28436905 3.91372391 -17.22889435 3.90947906 -18.20204163 3.90510559 C-21.19749324 3.88840933 -24.1922542 3.85077406 -27.1875 3.8125 C-29.22720378 3.79744146 -31.26691817 3.7837551 -33.30664062 3.77148438 C-38.28802361 3.73853547 -43.26889499 3.68681604 -48.25 3.625 C-48.25 3.295 -48.25 2.965 -48.25 2.625 C-46.99864258 2.60518066 -45.74728516 2.58536133 -44.45800781 2.56494141 C-39.813598 2.48884707 -35.16949992 2.40013537 -30.52539062 2.30761719 C-28.51568762 2.26934331 -26.50591649 2.23448764 -24.49609375 2.203125 C-21.6065232 2.15744009 -18.71742104 2.09945113 -15.828125 2.0390625 C-14.93007141 2.02751129 -14.03201782 2.01596008 -13.10675049 2.00405884 C-12.26618103 1.98418915 -11.42561157 1.96431946 -10.55957031 1.94384766 C-9.45370575 1.92386215 -9.45370575 1.92386215 -8.32550049 1.9034729 C-5.10008914 1.4707148 -3.26561654 -0.54426942 0 0 Z " fill="#F0F1FF" transform="translate(80.25,88.375)"/>
<path d="M0 0 C2.0625 0.4375 2.0625 0.4375 4 1 C-2.625 4 -2.625 4 -6 4 C-6 4.66 -6 5.32 -6 6 C-6.57492188 6.05414063 -7.14984375 6.10828125 -7.7421875 6.1640625 C-11.04237744 7.38593213 -12.14822079 9.51130083 -14.125 12.375 C-14.80820313 13.35210937 -15.49140625 14.32921875 -16.1953125 15.3359375 C-17.47092186 17.21897989 -18.73837371 19.10756057 -20 21 C-19.48969238 16.53480834 -17.81765077 14.41533427 -15 11 C-14.690625 10.0925 -14.38125 9.185 -14.0625 8.25 C-13.711875 7.5075 -13.36125 6.765 -13 6 C-10.375 5.1875 -10.375 5.1875 -8 5 C-8 4.01 -8 3.02 -8 2 C-6.2984375 1.7834375 -6.2984375 1.7834375 -4.5625 1.5625 C-1.19222799 1.38828522 -1.19222799 1.38828522 0 0 Z " fill="#CDD2FF" transform="translate(127,96)"/>
<path d="M0 0 C0.33 1.65 0.66 3.3 1 5 C0.34 5 -0.32 5 -1 5 C-1 5.66 -1 6.32 -1 7 C-2.98 7 -4.96 7 -7 7 C-7 4.69 -7 2.38 -7 0 C-3.86650268 -1.04449911 -3.01031744 -0.93423645 0 0 Z " fill="#6070FF" transform="translate(168,27)"/>
<path d="M0 0 C1.27310312 0.93441535 2.543388 1.87267111 3.8125 2.8125 C4.52019531 3.33457031 5.22789063 3.85664062 5.95703125 4.39453125 C7.79961207 5.84252498 9.46364869 7.23101505 11 9 C11 9.66 11 10.32 11 11 C13.475 11.99 13.475 11.99 16 13 C14.68 13.33 13.36 13.66 12 14 C12 13.34 12 12.68 12 12 C11.195625 11.731875 10.39125 11.46375 9.5625 11.1875 C8.716875 10.795625 7.87125 10.40375 7 10 C6.67 9.01 6.34 8.02 6 7 C5.01 6.67 4.02 6.34 3 6 C0 2.55555556 0 2.55555556 0 0 Z " fill="#DADDFF" transform="translate(107,74)"/>
<path d="M0 0 C3.80335791 2.31862461 6.49750804 4.46017484 7.91015625 8.7890625 C8.89162916 14.53249658 9.22370044 20.18378865 9 26 C8.67 26 8.34 26 8 26 C7.76216797 24.28103516 7.76216797 24.28103516 7.51953125 22.52734375 C7.28485311 20.99724229 7.04911957 19.46730244 6.8125 17.9375 C6.71130859 17.18533203 6.61011719 16.43316406 6.50585938 15.65820312 C5.57986743 9.87701015 3.58480618 6.60568388 0 2 C0 1.34 0 0.68 0 0 Z " fill="#9CA6FF" transform="translate(89,106)"/>
<path d="M0 0 C0.66 0 1.32 0 2 0 C2 0.66 2 1.32 2 2 C2.86625 2.2784375 2.86625 2.2784375 3.75 2.5625 C7.81971241 5.16259404 9.59303513 9.40605426 10.75 13.9375 C10.87375 14.9584375 10.87375 14.9584375 11 16 C9 14.1875 9 14.1875 7 12 C7 11.01 7 10.02 7 9 C6.01 9 5.02 9 4 9 C3.71125 8.360625 3.4225 7.72125 3.125 7.0625 C2.17176549 4.84793921 2.17176549 4.84793921 0 4 C0 2.68 0 1.36 0 0 Z " fill="#B1B9FF" transform="translate(155,49)"/>
<path d="M0 0 C-11.52164009 5.37129841 -11.52164009 5.37129841 -17 7 C-17 7.66 -17 8.32 -17 9 C-17.99 8.67 -18.98 8.34 -20 8 C-19.34 7.01 -18.68 6.02 -18 5 C-16.68 5 -15.36 5 -14 5 C-14 4.34 -14 3.68 -14 3 C-12.42274653 2.29866401 -10.83788667 1.614417 -9.25 0.9375 C-7.92742187 0.36322266 -7.92742187 0.36322266 -6.578125 -0.22265625 C-3.84743691 -1.04600008 -2.63098653 -0.9773992 0 0 Z " fill="#98A3FF" transform="translate(135,97)"/>
<path d="M0 0 C5.36932824 -0.32541383 9.96088837 1.32029612 15 3 C15 3.99 15 4.98 15 6 C15.99 6 16.98 6 18 6 C18.33 6.99 18.66 7.98 19 9 C16.97954558 8.39816251 14.97888961 7.72693904 13 7 C12.67 6.34 12.34 5.68 12 5 C10.11235097 4.31527335 10.11235097 4.31527335 7.9375 3.875 C7.20402344 3.70742187 6.47054687 3.53984375 5.71484375 3.3671875 C5.14894531 3.24601562 4.58304687 3.12484375 4 3 C4 2.34 4 1.68 4 1 C2.68 0.67 1.36 0.34 0 0 Z " fill="#CDD2FF" transform="translate(70,96)"/>
<path d="M0 0 C6.0546875 -0.1953125 6.0546875 -0.1953125 8 0 C8.66 0.66 9.32 1.32 10 2 C11.11375 2.12375 12.2275 2.2475 13.375 2.375 C17.3647155 3.06288198 18.51327198 3.91645726 21 7 C19.35 7 17.7 7 16 7 C15.67 6.01 15.34 5.02 15 4 C12.69 4 10.38 4 8 4 C7.67 3.01 7.34 2.02 7 1 C4.69 1 2.38 1 0 1 C0 0.67 0 0.34 0 0 Z " fill="#7F8CFF" transform="translate(116,27)"/>
<path d="M0 0 C0.33 1.32 0.66 2.64 1 4 C0.01 4.33 -0.98 4.66 -2 5 C-2.33 5.99 -2.66 6.98 -3 8 C-3.66 8 -4.32 8 -5 8 C-5 8.66 -5 9.32 -5 10 C-5.639375 10.12375 -6.27875 10.2475 -6.9375 10.375 C-7.618125 10.58125 -8.29875 10.7875 -9 11 C-9.33 11.66 -9.66 12.32 -10 13 C-10.99 13 -11.98 13 -13 13 C-12.67 11.68 -12.34 10.36 -12 9 C-10.02 9 -8.04 9 -6 9 C-6 8.34 -6 7.68 -6 7 C-5.195625 6.360625 -4.39125 5.72125 -3.5625 5.0625 C-0.76279268 3.18964068 -0.76279268 3.18964068 0 0 Z " fill="#95A0FF" transform="translate(168,150)"/>
<path d="M0 0 C0 0.99 0 1.98 0 3 C-4.22857143 7 -4.22857143 7 -8 7 C-8.33 7.99 -8.66 8.98 -9 10 C-9.66 10 -10.32 10 -11 10 C-10.34 8.68 -9.68 7.36 -9 6 C-8.01 6 -7.02 6 -6 6 C-5.8453125 5.071875 -5.8453125 5.071875 -5.6875 4.125 C-4.72223986 1.14146864 -3.16449578 0 0 0 Z " fill="#7E8BFF" transform="translate(72,30)"/>
<path d="M0 0 C1.32 0 2.64 0 4 0 C4 0.66 4 1.32 4 2 C4.7425 2.28875 5.485 2.5775 6.25 2.875 C8.56739797 3.82302644 10.77917115 4.84845911 13 6 C12.67 6.99 12.34 7.98 12 9 C11.319375 8.401875 10.63875 7.80375 9.9375 7.1875 C6.68325166 4.76412357 3.76063775 3.4747599 0 2 C0 1.34 0 0.68 0 0 Z " fill="#CCD1FF" transform="translate(126,26)"/>
<path d="M0 0 C1.98 0 3.96 0 6 0 C3.6941256 2.69757742 1.9621127 3.51238802 -1.5 4.1875 C-2.66015625 4.42533203 -2.66015625 4.42533203 -3.84375 4.66796875 C-6 5 -6 5 -9 5 C-5.55930376 2.70620251 -4.27709699 2 0 2 C0 1.34 0 0.68 0 0 Z " fill="#DADDFF" transform="translate(83,23)"/>
<path d="M0 0 C0.99 0.33 1.98 0.66 3 1 C3 1.66 3 2.32 3 3 C4.65 3.33 6.3 3.66 8 4 C8.33 4.99 8.66 5.98 9 7 C7.68 7 6.36 7 5 7 C4.67 6.34 4.34 5.68 4 5 C3.01 4.67 2.02 4.34 1 4 C0.3125 1.9375 0.3125 1.9375 0 0 Z " fill="#97A1FF" transform="translate(39,156)"/>
<path d="M0 0 C3.13107836 3.38583802 3.33550778 5.71109462 3.1875 10.25 C3.16042969 11.32765625 3.13335937 12.4053125 3.10546875 13.515625 C3.07066406 14.33546875 3.03585938 15.1553125 3 16 C2.67 16 2.34 16 2 16 C0.80911014 10.61972975 -0.2919519 5.54708616 0 0 Z " fill="#BAC1FF" transform="translate(96,115)"/>
<path d="M0 0 C2.8125 -0.25 2.8125 -0.25 6 0 C6.99 1.32 7.98 2.64 9 4 C5.7 3.67 2.4 3.34 -1 3 C-0.67 2.01 -0.34 1.02 0 0 Z " fill="#8793FF" transform="translate(161,24)"/>
<path d="M0 0 C0.33 0.66 0.66 1.32 1 2 C0.34 2 -0.32 2 -1 2 C-1.66 3.65 -2.32 5.3 -3 7 C-4.65 7 -6.3 7 -8 7 C-8 7.66 -8 8.32 -8 9 C-8.66 9 -9.32 9 -10 9 C-9.67 8.01 -9.34 7.02 -9 6 C-7.68 6 -6.36 6 -5 6 C-5 5.34 -5 4.68 -5 4 C-3.37373596 2.61767557 -1.7074998 1.28062485 0 0 Z " fill="#D2D7FF" transform="translate(168,154)"/>
<path d="M0 0 C0 0.99 0 1.98 0 3 C-0.66 3 -1.32 3 -2 3 C-2.33 3.99 -2.66 4.98 -3 6 C-7.33333333 9 -7.33333333 9 -10 9 C-10 8.34 -10 7.68 -10 7 C-7.8125 5.2734375 -7.8125 5.2734375 -5 3.375 C-4.071875 2.74335937 -3.14375 2.11171875 -2.1875 1.4609375 C-1.1046875 0.73777344 -1.1046875 0.73777344 0 0 Z " fill="#BCC3FF" transform="translate(90,79)"/>
<path d="M0 0 C1.65 0 3.3 0 5 0 C3.68 0.33 2.36 0.66 1 1 C0.896875 2.258125 0.79375 3.51625 0.6875 4.8125 C0.35141192 7.60499657 0.19974124 8.74433121 -1.5625 11 C-2.036875 11.33 -2.51125 11.66 -3 12 C-2.40075776 7.80530429 -1.42500059 3.99000166 0 0 Z " fill="#CDD2FF" transform="translate(99,60)"/>
<path d="M0 0 C1.61648437 0.04060547 1.61648437 0.04060547 3.265625 0.08203125 C4.08546875 0.11683594 4.9053125 0.15164062 5.75 0.1875 C5.75 0.5175 5.75 0.8475 5.75 1.1875 C4.79287109 1.27837891 4.79287109 1.27837891 3.81640625 1.37109375 C2.99011719 1.45488281 2.16382812 1.53867187 1.3125 1.625 C0.07693359 1.74681641 0.07693359 1.74681641 -1.18359375 1.87109375 C-3.23662025 1.97680815 -3.23662025 1.97680815 -4.25 3.1875 C-6.24958364 3.22830783 -8.25045254 3.23004356 -10.25 3.1875 C-6.86416198 0.05642164 -4.53890538 -0.14800778 0 0 Z " fill="#909BFF" transform="translate(83.25,26.8125)"/>
<path d="M0 0 C1.98 0.99 1.98 0.99 4 2 C4 4.31 4 6.62 4 9 C2 6 2 6 2 4 C1.34 4 0.68 4 0 4 C0 2.68 0 1.36 0 0 Z " fill="#808DFF" transform="translate(32,144)"/>
<path d="M0 0 C2.97 0.495 2.97 0.495 6 1 C6 1.66 6 2.32 6 3 C6.99 3.33 7.98 3.66 9 4 C3.375 4.25 3.375 4.25 0 2 C0 1.34 0 0.68 0 0 Z " fill="#97A1FF" transform="translate(118,83)"/>
<path d="M0 0 C0.33 0.99 0.66 1.98 1 3 C1.99 3.33 2.98 3.66 4 4 C4 5.98 4 7.96 4 10 C2 8.375 2 8.375 0 6 C-0.25 2.75 -0.25 2.75 0 0 Z " fill="#8793FF" transform="translate(161,58)"/>
<path d="M0 0 C2.375 0.25 2.375 0.25 5 1 C6.3125 3.0625 6.3125 3.0625 7 5 C5.68 4.67 4.36 4.34 3 4 C3 3.34 3 2.68 3 2 C2.01 1.67 1.02 1.34 0 1 C0 0.67 0 0.34 0 0 Z " fill="#ABB3FF" transform="translate(139,35)"/>
<path d="M0 0 C2.70272533 2.87164566 3.94791837 4.30991841 4.25 8.3125 C4.1675 9.199375 4.085 10.08625 4 11 C0 5 0 5 0 0 Z " fill="#7F8CFF" transform="translate(105,60)"/>
<path d="M0 0 C0.66 0.33 1.32 0.66 2 1 C0.1875 3.5 0.1875 3.5 -2 6 C-2.99 6 -3.98 6 -5 6 C-4.67 5.01 -4.34 4.02 -4 3 C-1.9375 2.3125 -1.9375 2.3125 0 2 C0 1.34 0 0.68 0 0 Z " fill="#E4E7FF" transform="translate(58,35)"/>
</svg>
